<?xml version="1.0" encoding="UTF-8" standalone="no"?>
<!-- Created with Inkscape (http://www.inkscape.org/) -->

<svg
   xmlns:dc="http://purl.org/dc/elements/1.1/"
   xmlns:cc="http://creativecommons.org/ns#"
   xmlns:rdf="http://www.w3.org/1999/02/22-rdf-syntax-ns#"
   xmlns:svg="http://www.w3.org/2000/svg"
   xmlns="http://www.w3.org/2000/svg"
   xmlns:sodipodi="http://sodipodi.sourceforge.net/DTD/sodipodi-0.dtd"
   xmlns:inkscape="http://www.inkscape.org/namespaces/inkscape"
   width="210mm"
   height="297mm"
   viewBox="0 0 210 297"
   version="1.1"
   id="svg1706"
   inkscape:version="0.92.4 (5da689c313, 2019-01-14)"
   sodipodi:docname="ícones.svg">
  <defs
     id="defs1700" />
  <sodipodi:namedview
     id="base"
     pagecolor="#ffffff"
     bordercolor="#666666"
     borderopacity="1.0"
     inkscape:pageopacity="0.0"
     inkscape:pageshadow="2"
     inkscape:zoom="0.30642231"
     inkscape:cx="-2933.4463"
     inkscape:cy="943.16261"
     inkscape:document-units="mm"
     inkscape:current-layer="layer1"
     showgrid="false"
     inkscape:snap-bbox="true"
     inkscape:bbox-paths="true"
     inkscape:bbox-nodes="true"
     inkscape:snap-bbox-edge-midpoints="true"
     inkscape:snap-bbox-midpoints="true"
     inkscape:object-paths="true"
     inkscape:snap-intersection-paths="true"
     inkscape:snap-smooth-nodes="true"
     inkscape:snap-midpoints="true"
     inkscape:snap-object-midpoints="true"
     inkscape:snap-center="true"
     inkscape:snap-global="true"
     showguides="true"
     inkscape:guide-bbox="true"
     inkscape:window-width="1366"
     inkscape:window-height="705"
     inkscape:window-x="-8"
     inkscape:window-y="-8"
     inkscape:window-maximized="1">
    <sodipodi:guide
       position="-583.19657,285.03883"
       orientation="0,1"
       id="guide2931"
       inkscape:locked="false" />
    <sodipodi:guide
       position="-712.01814,268.2814"
       orientation="0,1"
       id="guide2933"
       inkscape:locked="false" />
    <sodipodi:guide
       position="-721.51172,220.81353"
       orientation="0,1"
       id="guide3202"
       inkscape:locked="false" />
  </sodipodi:namedview>
  <metadata
     id="metadata1703">
    <rdf:RDF>
      <cc:Work
         rdf:about="">
        <dc:format>image/svg+xml</dc:format>
        <dc:type
           rdf:resource="http://purl.org/dc/dcmitype/StillImage" />
        <dc:title />
      </cc:Work>
    </rdf:RDF>
  </metadata>
  <g
     inkscape:label="Camada 1"
     inkscape:groupmode="layer"
     id="layer1">
    <g
       id="g2387"
       transform="translate(0.62820286,-2.9280582)">
      <path
         sodipodi:nodetypes="ssssssss"
         inkscape:connector-curvature="0"
         id="path2705"
         d="m -429.25698,79.406928 c -1.25223,1.880489 -3.02094,3.651328 -5.19725,5.151655 -2.52936,1.743712 -5.75187,2.99944 -9.19303,4.161985 -14.05607,4.74862 -33.87428,4.300457 -47.92198,-3.278383 -1.8305,-0.987569 -3.59836,-2.12083 -5.16536,-3.408345 -18.92588,-15.550373 -11.58121,-16.418734 -0.88814,-33.506202 10.69306,-17.087468 34.12045,-44.5923215 53.04633,-29.041957 18.92587,15.550364 26.49193,43.143313 15.31943,59.921247 z"
         style="display:inline;fill:#44ffd2;fill-opacity:1;fill-rule:evenodd;stroke-width:0.2846424" />
      <g
         id="g2377">
        <path
           style="display:inline;fill:#44ffd2;fill-opacity:1;stroke:none;stroke-width:0.2846424px;stroke-linecap:butt;stroke-linejoin:miter;stroke-opacity:1"
           d="m -489.99445,85.585212 c 1.24643,1.540568 19.89908,6.932319 29.27445,5.48894 8.04022,-0.298676 16.39298,-1.891752 25.40606,-6.220815 l -7.89364,0.209073 -0.17502,-73.970349 -1.39315,-0.836351 -12.54616,29.588115 -11.65755,20.439863 2.09103,9.409654 5.6458,16.310075 z"
           id="path2707"
           inkscape:connector-curvature="0"
           sodipodi:nodetypes="ccccccccccc" />
        <path
           sodipodi:nodetypes="cccsccc"
           style="display:inline;fill:#1ddbad;fill-opacity:1;stroke:none;stroke-width:0.2846424px;stroke-linecap:butt;stroke-linejoin:miter;stroke-opacity:1"
           d="m -443.46898,85.480675 0.36617,-74.649895 -1.82962,-0.8364115 c 0.37215,0.8681905 -16.32035,39.4055215 -19.94311,42.4323595 -3.97776,3.323483 -3.85799,6.362088 -3.85799,6.362088 l 11.62081,27.214601 z"
           id="path2709"
           inkscape:connector-curvature="0" />
        <path
           sodipodi:nodetypes="cscccccccscccscccccccccscccccccccscccasccccscccccccccc"
           inkscape:connector-curvature="0"
           id="path2711"
           d="m -444.1646,8.7874206 c -0.54538,0.094979 -0.83814,0.4539868 -1.34314,0.9767288 -1.0591,1.0967366 -1.18682,2.1446096 -1.48848,3.0150696 -0.0299,0.07228 -0.0538,0.145157 -0.0824,0.217436 -0.0418,0.09617 -0.0777,0.19175 -0.12544,0.282547 -0.0239,0.09259 -0.0538,0.170843 -0.0806,0.261043 -0.6081,1.601558 -1.25557,3.282683 -1.94265,5.034117 -0.37573,0.838322 -0.75511,1.68907 -1.13915,2.677148 -0.37215,0.95618 -0.78145,2.03864 -1.19553,3.142724 -1.83614,4.459406 -3.85292,9.099092 -6.00679,13.521461 -8.33585,17.115126 -13.70467,20.519848 -11.52302,21.810544 -0.001,5.98e-4 -0.002,0.0022 -0.003,0.0022 -0.0597,0.04181 -0.10931,0.104536 -0.13619,0.12843 -0.51193,0.538811 0.31002,6.664528 6.41638,23.504394 0.23775,0.655712 0.4976,1.491107 0.7501,2.157572 -0.31003,-6e-5 -0.61187,0.0032 -0.92434,0.0022 -15.86284,-0.06451 -28.4973,-0.602071 -28.58039,-0.07885 -0.006,0.05376 0.11231,0.106926 0.34348,0.166064 1.37582,1.09823 13.08074,6.309641 27.9239,6.369794 15.86289,0.06392 28.76466,-6.896598 28.84763,-7.41946 0.006,-0.03584 -0.0782,-0.02987 -0.20787,0.0022 6e-5,-2.99e-4 0,-0.0011 0,-0.0022 0.0358,-0.243122 -2.73312,-0.03584 -7.21887,0.248498 0,0 0.52626,-24.629503 0.28254,-36.941149 -0.20668,-10.440025 -1.48095,-31.291044 -1.48095,-31.291044 0.012,-0.327946 0.0239,-0.647768 0.012,-0.928881 -0.006,-0.148144 -0.006,-0.327349 -0.006,-0.514917 v -0.308233 c 0.003,-0.580626 0.0119,-1.222838 -0.0299,-1.657709 -0.0119,-1.459628 0.44861,-4.2027838 -1.0523,-4.3766727 z m -0.48863,2.5455524 v 5.980022 c 0,0 0.90385,20.364297 0.93127,30.553495 0.0358,12.371859 -0.93127,37.103928 -0.93127,37.103928 -3.33639,0.194139 -7.2801,0.388278 -11.72182,0.486244 -0.26104,-0.702426 -0.52029,-1.403895 -0.78982,-2.11761 -1.56506,-4.147529 -3.02875,-7.741671 -4.71925,-11.5373 -1.91666,-4.303257 -4.39131,-9.434683 -6.14388,-12.726984 -1.19637,-2.247593 5.79502,-7.356677 12.16297,-20.475404 4.31323,-8.885778 7.97828,-18.656292 10.4767,-26.171566 0.23058,-0.394252 0.45817,-0.745255 0.7351,-1.094706 z m -23.73605,50.020511 c 1.47474,3.243616 3.24302,7.187448 5.13454,11.684486 1.42814,3.395464 2.92654,7.106269 4.42189,11.069156 0.1792,0.474297 0.34706,0.927149 0.51671,1.384182 -0.77656,0.01195 -1.55975,0.01792 -2.35751,0.02389 -0.29688,-0.781096 -0.58839,-1.558668 -0.86616,-2.325548 -4.64255,-12.803743 -6.1388,-19.176285 -6.84965,-21.837305 z m 32.5192,23.614664 c -3.66971,1.328748 -14.64579,5.560443 -27.53299,5.508175 -12.34073,-0.04779 -22.32289,-3.375691 -26.19952,-4.608385 4.16874,0.510735 14.55942,1.104681 26.71295,1.153963 12.98671,0.05376 23.56179,-1.28108 27.01956,-2.053753 z"
           style="display:inline;opacity:1;vector-effect:none;fill:#3b3737;fill-opacity:1;fill-rule:evenodd;stroke-width:0.2846424;stroke-linecap:butt;stroke-linejoin:miter;stroke-miterlimit:4;stroke-dasharray:none;stroke-dashoffset:0;stroke-opacity:1" />
        <path
           sodipodi:nodetypes="csccsc"
           inkscape:connector-curvature="0"
           id="path2715"
           d="m -452.57679,66.927427 c -0.25029,-1.18174 0.39246,-8.79056 0.91579,-4.703125 l 2.9965,23.400036 -0.4074,0.07766 c -1.18006,-5.800399 -2.96238,-16.210975 -3.50483,-18.774746 z"
           style="display:inline;opacity:1;vector-effect:none;fill:#3b3737;fill-opacity:1;fill-rule:evenodd;stroke-width:0.2846424;stroke-linecap:butt;stroke-linejoin:miter;stroke-miterlimit:4;stroke-dasharray:none;stroke-dashoffset:0;stroke-opacity:1" />
      </g>
    </g>
    <g
       id="g2927"
       transform="translate(5.0260536,-20.441075)">
      <path
         style="display:inline;fill:#44ffd2;fill-opacity:1;fill-rule:evenodd;stroke-width:0.2846424"
         d="m -537.16786,96.795114 c -1.25223,1.88049 -3.02094,3.651326 -5.19725,5.151646 -2.52936,1.74371 -5.75187,2.99944 -9.19303,4.16199 -14.05607,4.74862 -33.87429,4.30045 -47.92198,-3.27839 -1.8305,-0.98756 -3.59836,-2.12083 -5.16536,-3.408336 -18.92588,-15.55037 -11.58121,-16.41874 -0.88814,-33.5062 10.69306,-17.08747 34.12045,-44.59232 53.04633,-29.04196 18.92587,15.55036 26.49193,43.14331 15.31943,59.92125 z"
         id="path2705-7"
         inkscape:connector-curvature="0"
         sodipodi:nodetypes="ssssssss" />
      <path
         inkscape:connector-curvature="0"
         d="m -560.65857,49.288923 c -3.95643,8.89e-4 -5.32448,0.147711 -6.97233,0.749095 -2.9785,1.087023 -5.44187,3.276141 -6.79322,6.037025 -1.1145,2.276936 -1.32743,3.73284 -1.33244,9.102303 l -0.003,3.520415 h -3.42312 -3.42312 l -0.56119,0.539067 c -0.72002,0.69167 -0.7405,0.83617 -0.68897,4.852425 0.0455,3.550303 0.0861,3.725823 0.99211,4.290376 0.42209,0.263023 0.6086,0.278652 3.77428,0.316086 l 3.33001,0.03926 v 8.600398 c 0,5.693465 0.0455,8.729235 0.13362,8.982876 0.0349,0.100223 0.096,0.20481 0.16621,0.295629 0,0 6.70781,-0.0019 10.04923,0.01367 1.41775,-0.139011 0.0138,-1.322321 0.0105,-1.322321 0,0 -4.42546,0.08792 -8.45679,-0.0286 V 86.91768 c 0,-8.039246 -0.0284,-9.583441 -0.17998,-9.790858 -0.16938,-0.231833 -0.40498,-0.250091 -4.02772,-0.309823 l -3.84779,-0.06346 v -3.107863 -3.108274 l 3.83107,-0.06346 c 2.90234,-0.04809 3.87165,-0.103666 3.99644,-0.228412 0.12695,-0.126862 0.18203,-1.334278 0.24094,-5.264537 0.0853,-5.693731 0.10552,-5.847321 1.023,-7.827505 1.45927,-3.149499 4.38678,-5.338322 7.79912,-5.831586 0.47841,-0.06917 2.39718,-0.127169 4.26365,-0.128608 l 3.39349,-0.0017 v 3.095343 3.094925 l -2.50575,0.05679 c -1.72269,0.03911 -2.65132,0.11251 -2.97219,0.235085 -1.16021,0.443216 -2.2099,1.54825 -2.51534,2.647724 -0.0684,0.246624 -0.12487,1.60438 -0.12526,3.017259 -0.002,2.400313 -0.0404,6.617103 0.19666,6.854172 0.0804,0.114996 0.13568,0.182682 0.41965,0.222982 0.0987,0.0232 0.20173,0.03157 0.30356,0.02672 0.503,0.03079 1.40493,0.03215 3.14587,0.03215 3.41374,0 3.67156,0.01539 3.66823,0.22172 -0.002,0.122117 -0.33352,1.535259 -0.73698,3.140022 l -0.73365,2.917893 -2.95212,0.06305 c -2.73541,0.05873 -2.96547,0.0816 -3.13208,0.309822 -0.15207,0.208144 -0.17997,1.987017 -0.17997,11.498666 0.10524,2.163947 0.0985,5.44821 0.0734,8.001625 0.14073,-0.0089 0.28174,-0.01627 0.42257,-0.02212 0.28828,-0.01081 0.57673,-0.01587 0.86517,-0.01964 0.17606,-0.002 0.35214,-0.003 0.52822,-0.004 0.006,-2.414408 0.0137,-5.33542 0.0137,-7.432901 V 78.744033 l 2.46484,-0.04385 c 3.48309,-0.06124 3.36074,0.06059 4.49499,-4.474106 0.42838,-1.712575 0.77858,-3.357315 0.77833,-3.654866 0,-0.655584 -0.35134,-1.274117 -0.9182,-1.619704 -0.38919,-0.237275 -0.64606,-0.252145 -4.37098,-0.252622 -1.22497,-1.38e-4 -2.03941,8.9e-4 -2.62934,0.0095 0.0916,-1.534334 0.14308,-3.915616 0.18036,-5.469149 0.0721,-3.003785 0.10646,-3.112735 1.14453,-3.643177 0.52324,-0.267366 0.71607,-0.285609 3.04984,-0.285609 2.37502,0 2.51142,-0.01308 2.91118,-0.28519 0.23068,-0.156991 0.53884,-0.446459 0.68482,-0.643454 0.25477,-0.343852 0.26556,-0.503875 0.26556,-3.996428 0,-4.172955 -0.0236,-4.277793 -1.07647,-4.811499 -0.54359,-0.275532 -0.68472,-0.28483 -4.05698,-0.284353 z"
         style="fill:#3b3737;fill-opacity:1;stroke-width:0.12686157"
         id="path2319"
         sodipodi:nodetypes="ccccccccccccscccccscccccccccccccccccccccsccccccccccscccccccccsccsccc" />
    </g>
    <g
       id="g3200"
       transform="translate(3.7120321,-86.128714)">
      <path
         style="display:inline;fill:#44ffd2;fill-opacity:1;fill-rule:evenodd;stroke-width:0.2846424"
         d="m -639.3669,162.48275 c -1.25223,1.88049 -3.02094,3.65133 -5.19725,5.15165 -2.52936,1.74371 -5.75187,2.99944 -9.19303,4.16199 -14.05607,4.74862 -33.87429,4.30045 -47.92198,-3.27839 -1.8305,-0.98756 -3.59836,-2.12083 -5.16536,-3.40834 -18.92588,-15.55037 -11.58121,-16.41874 -0.88814,-33.5062 10.69306,-17.08747 34.12045,-44.592316 53.04633,-29.04196 18.92587,15.55036 26.49193,43.14331 15.31943,59.92125 z"
         id="path3068"
         inkscape:connector-curvature="0"
         sodipodi:nodetypes="ssssssss" />
      <g
         transform="translate(-1.7720362,-2.5343613)"
         id="g3193">
        <circle
           style="fill:#3b3737;fill-opacity:1;fill-rule:evenodd;stroke-width:0.47202939"
           id="path3187"
           cx="-656.25092"
           cy="127.71751"
           r="2.1192861" />
        <path
           sodipodi:nodetypes="ccccccccccccccccscccssscccscsccccccsccsssscsscsssssssss"
           inkscape:connector-curvature="0"
           id="path3189"
           d="m -681.4358,165.59357 c -5.55217,-0.58489 -10.2548,-4.36354 -12.05244,-9.68434 -0.30259,-0.89563 -0.51882,-1.94014 -0.64023,-3.09252 -0.12435,-1.18061 -0.12435,-22.17401 0,-23.35461 0.47581,-4.51635 2.85873,-8.3274 6.72202,-10.75064 1.76744,-1.10863 3.80359,-1.79033 6.05627,-2.02764 1.1806,-0.12436 22.174,-0.12436 23.3546,0 4.51636,0.47579 8.32741,2.85872 10.75065,6.72201 1.10862,1.76743 1.79033,3.80359 2.02765,6.05627 0.12434,1.1806 0.12434,22.174 0,23.35461 -0.23732,2.25267 -0.91903,4.28882 -2.02765,6.05626 -2.42324,3.86328 -6.23429,6.24622 -10.75065,6.72202 -1.04036,0.10964 -22.39855,0.10824 -23.44022,-0.001 z m 24.52576,-4.04049 c 1.99362,-0.55017 3.52832,-1.42236 4.87841,-2.77244 1.34962,-1.34961 2.22106,-2.8827 2.77297,-4.87842 l 0.25395,-0.9182 V 141.1394 129.29477 l -0.25395,-0.9182 c -0.55191,-1.99571 -1.42335,-3.5288 -2.77297,-4.87842 -1.34961,-1.3496 -2.8827,-2.22105 -4.87841,-2.77297 l -0.9182,-0.25394 h -11.84464 -11.84462 l -0.9182,0.25394 c -1.99571,0.55192 -3.52882,1.42337 -4.87843,2.77297 -1.34961,1.34962 -2.22104,2.88271 -2.77298,4.87842 l -0.25393,0.9182 v 11.84463 11.84462 l 0.25393,0.9182 c 0.36215,1.30949 0.77536,2.24516 1.4311,3.24052 1.31917,2.00238 3.37436,3.54828 5.6265,4.23214 1.56343,0.47475 1.32941,0.46706 13.64437,0.44875 l 11.5569,-0.0172 z m -14.2807,-7.27803 c -2.95813,-0.37238 -5.52817,-1.60216 -7.64954,-3.66037 -1.99513,-1.93571 -3.20286,-4.13253 -3.79151,-6.89658 -0.30172,-1.41671 -0.30172,-3.7407 0,-5.15739 0.58865,-2.76406 1.79638,-4.96088 3.79151,-6.89659 1.87895,-1.823 3.9616,-2.92415 6.5887,-3.48363 1.41671,-0.30172 3.7407,-0.30172 5.15741,0 2.62711,0.55948 4.70974,1.66063 6.58871,3.48363 1.99513,1.93571 3.20286,4.13253 3.79151,6.89659 0.3017,1.41669 0.3017,3.74068 0,5.15739 -0.86899,4.08036 -3.44305,7.43676 -7.10854,9.26897 -2.12023,1.05982 -5.07614,1.57652 -7.36825,1.28798 z m 3.09417,-3.88214 c 5.11544,-0.89206 8.56229,-5.75437 7.67721,-10.82983 -0.89206,-5.11543 -5.75436,-8.56227 -10.82984,-7.6772 -5.11541,0.89206 -8.56228,5.75436 -7.67719,10.82984 0.89201,5.11507 5.75471,8.56221 10.82982,7.67719 z"
           style="fill:#3b3737;fill-opacity:1;stroke:#44ffd2;stroke-width:1.7051537;stroke-miterlimit:4;stroke-dasharray:none;stroke-opacity:1" />
      </g>
    </g>
    <g
       id="g3227"
       transform="translate(2.5998806)">
      <path
         sodipodi:nodetypes="ssssssss"
         inkscape:connector-curvature="0"
         id="path3204"
         d="m -741.76781,76.354036 c -1.25223,1.88049 -3.02094,3.65133 -5.19725,5.15165 -2.52936,1.74371 -5.75187,2.99944 -9.19303,4.16199 -14.05607,4.74862 -33.87429,4.30045 -47.92198,-3.27839 -1.8305,-0.98756 -3.59836,-2.12083 -5.16536,-3.40834 -18.92588,-15.55037 -11.58121,-16.41874 -0.88814,-33.5062 10.69306,-17.08747 34.12045,-44.592316 53.04633,-29.04196 18.92587,15.55036 26.49193,43.14331 15.31943,59.92125 z"
         style="display:inline;fill:#44ffd2;fill-opacity:1;fill-rule:evenodd;stroke-width:0.2846424" />
      <path
         sodipodi:nodetypes="ccccccccsccccccccccccccccsccscccccsccccccccccscccscccccscccccccccccccccccccsscc"
         inkscape:connector-curvature="0"
         id="path2334"
         d="m -795.03169,76.720603 c -0.89145,-0.33869 -1.56738,-1.365193 -1.47395,-2.238405 0.0321,-0.299998 0.71054,-2.19965 1.82579,-5.112284 l 1.77473,-4.634899 -0.45741,-0.85408 c -1.29514,-2.418342 -2.18791,-5.239766 -2.56646,-8.110707 -0.17267,-1.309489 -0.19812,-4.25492 -0.0476,-5.491919 0.82971,-6.81325 4.24675,-12.647748 9.72373,-16.602922 6.49025,-4.686929 14.9754,-5.757269 22.37456,-2.822392 3.05685,1.212501 5.71431,2.957892 8.04995,5.287149 5.44803,5.433116 7.88892,13.157925 6.55552,20.746487 -1.89385,10.777945 -11.19399,19.010878 -22.00164,19.476878 -4.35767,0.187897 -7.99784,-0.568645 -11.80123,-2.452675 l -1.38149,-0.684318 -4.61919,1.769663 c -4.8464,1.856719 -5.27814,1.981735 -5.95541,1.724424 z m 3.53104,-2.28571 c 1.45362,-0.556562 3.66264,-1.400213 4.90892,-1.874777 l 2.26596,-0.862853 1.36235,0.70464 c 2.34346,1.212113 4.09271,1.828887 6.39056,2.25329 7.20434,1.330592 14.52843,-0.949958 19.71826,-6.1398 3.41986,-3.419843 5.63378,-7.810412 6.34283,-12.57883 0.22688,-1.525764 0.22581,-4.767868 -0.002,-6.301895 -1.31854,-8.875723 -7.8314,-16.120274 -16.48096,-18.332563 -2.05431,-0.525429 -3.08398,-0.646294 -5.48899,-0.644314 -2.40684,0.002 -3.46062,0.125646 -5.48897,0.644136 -5.50339,1.406779 -10.40068,4.999077 -13.39749,9.827412 -3.5428,5.708002 -4.31363,12.597928 -2.12663,19.008562 0.17547,0.514386 0.72097,1.7432 1.21221,2.7307 l 0.89316,1.795464 -1.87416,4.902959 c -1.03077,2.69662 -1.87361,5.000371 -1.87297,5.119433 0.002,0.284204 0.48378,0.760372 0.77004,0.760372 0.12374,0 1.41432,-0.455368 2.86794,-1.011936 z m 24.9245,-9.650855 c -0.9962,-0.11464 -2.30997,-0.358493 -3.22219,-0.598073 -7.50075,-1.969967 -13.18489,-8.189675 -14.45036,-15.811908 -0.28171,-1.69682 -0.30889,-2.213256 -0.15529,-2.949937 0.24716,-1.185378 0.52136,-1.610117 2.00964,-3.11288 1.26472,-1.277038 1.38656,-1.374724 1.89815,-1.521814 0.88317,-0.253927 1.68447,-0.0228 2.28263,0.658488 0.36996,0.421356 0.4092,0.523879 0.70439,1.840015 0.13066,0.582572 0.38455,1.494299 0.56419,2.026054 0.54018,1.598993 0.43574,2.528778 -0.39971,3.558144 -0.2431,0.299519 -0.52351,0.645012 -0.62316,0.767762 -0.31459,0.387602 -0.25452,1.079697 0.16795,1.935031 1.19499,2.419345 3.26463,4.630522 5.67775,6.066013 1.66329,0.989439 2.33379,1.08081 3.06722,0.417977 1.37858,-1.245898 2.25026,-1.419567 4.05032,-0.806965 0.53175,0.180971 1.44349,0.43594 2.02606,0.566602 1.31613,0.295184 1.41865,0.334434 1.84,0.704389 0.68029,0.597294 0.91299,1.401223 0.65873,2.275785 -0.14236,0.48972 -0.26608,0.651006 -1.33246,1.737079 -1.2972,1.321158 -1.84468,1.732195 -2.68362,2.014814 -0.57845,0.194867 -1.50846,0.29922 -2.08024,0.233424 z m 2.00021,-1.706606 c 0.40934,-0.201749 0.85044,-0.568798 1.6541,-1.376441 1.2481,-1.254282 1.38819,-1.542348 0.98052,-2.016282 -0.18422,-0.214174 -0.39543,-0.296676 -1.24223,-0.485234 -0.56114,-0.124953 -1.54659,-0.396548 -2.18993,-0.603556 -1.43539,-0.461862 -1.61112,-0.436418 -2.57785,0.373278 -0.82056,0.687252 -1.34264,0.895716 -2.23066,0.890683 -0.64053,-0.0036 -0.73384,-0.03357 -1.81415,-0.582373 -1.56256,-0.793763 -2.70595,-1.631898 -4.02302,-2.948973 -1.31709,-1.317075 -2.15523,-2.460469 -2.94898,-4.023031 -0.54879,-1.080315 -0.57873,-1.173625 -0.58237,-1.814155 -0.005,-0.888018 0.20341,-1.41009 0.89067,-2.230642 0.81037,-0.967535 0.83558,-1.142759 0.37098,-2.577873 -0.20826,-0.643314 -0.47976,-1.628682 -0.60328,-2.189694 -0.18696,-0.849046 -0.26791,-1.057274 -0.48294,-1.242227 -0.47423,-0.407921 -0.76208,-0.267992 -2.01654,0.980292 -1.42941,1.422352 -1.70361,1.925538 -1.68618,3.094303 0.0217,1.456831 0.5009,3.677198 1.15405,5.34775 1.78674,4.569906 5.20417,8.173983 9.6474,10.174284 1.76693,0.795454 3.24646,1.192392 5.74671,1.541741 0.62027,0.08666 1.3965,-0.03725 1.9537,-0.31185 z"
         style="fill:#3b3737;fill-opacity:1;stroke:#3b3737;stroke-width:0.69999999;stroke-miterlimit:4;stroke-dasharray:none;stroke-opacity:1" />
    </g>
    <g
       id="g1118"
       transform="translate(5.8008691)">
      <path
         sodipodi:nodetypes="ssssssss"
         inkscape:connector-curvature="0"
         id="path2705-7-6"
         d="m -848.48186,76.354047 c -1.25223,1.88048 -3.02094,3.65132 -5.19725,5.15164 -2.52936,1.74371 -5.75187,2.99944 -9.19303,4.16199 -14.05607,4.74862 -33.87429,4.30045 -47.92198,-3.27839 -1.8305,-0.98756 -3.59836,-2.12083 -5.16536,-3.40833 -18.92588,-15.55038 -11.58121,-16.41874 -0.88814,-33.5062 10.69306,-17.08748 34.12045,-44.59233026 53.04633,-29.04197 18.92587,15.55036 26.49193,43.14331 15.31943,59.92126 z"
         style="display:inline;fill:#44ffd2;fill-opacity:1;fill-rule:evenodd;stroke-width:0.2846424" />
      <path
         sodipodi:nodetypes="ccccscscccccccsccccccccccccccsccsccccccccsccccccccccccccccccccccccsccc"
         inkscape:connector-curvature="0"
         d="m -3329.0625,108.85742 c -0.627,-0.005 -1.2779,0.007 -1.957,0.0352 -4.8508,0.19853 -7.1732,0.79416 -11.1348,2.85937 -2.307,1.20272 -84.3266,64.42827 -85.2031,65.67969 -0.5005,0.71432 -0.586,2.78872 -0.586,14.19922 0,12.92119 0.1055,29.11523 0.1055,29.11523 -0.1045,4.41077 -0.1055,13.03198 -0.1055,30.5918 v 34.67383 l 0.8282,0.88086 0.8281,0.88281 h 95.8711 95.873 l 0.7891,-1.00391 0.7891,-1.0039 v -53.7832 c 0,-52.31236 -0.019,-53.808 -0.7247,-54.70508 -1.2469,-1.58525 -81.4023,-64.03339 -84.0976,-65.51953 -3.6615,-2.01887 -6.8866,-2.86987 -11.2754,-2.90235 z m -0.2598,5.57617 v 0 c 3.7577,0.11561 7.4684,1.21812 10.4454,3.28711 3.8099,2.64797 77.6993,60.57771 77.7031,60.92188 0,0.19374 -9.448,5.68139 -21.0039,12.19531 -11.556,6.51396 -35.6255,19.96171 -36.0606,20.35547 0,0.002 0,0.005 -0.01,0.008 -1.4728,0.7831 -3.2633,1.77657 -5.5645,3.07422 -5.1975,2.93102 -9.6868,5.41979 -9.9766,5.53125 -0.2898,0.11122 -1.8592,-0.55797 -3.4882,-1.48633 -4.0126,-2.28668 -7.8532,-3.28125 -12.6661,-3.28125 -5.2697,0 -9.87,1.29799 -13.8261,3.90235 -1.1742,0.7705 -1.8782,1.01331 -2.3301,0.79297 -2.577,-1.25609 -73.4844,-41.09162 -73.4844,-41.28321 0,-0.36353 77.48,-60.15886 79.5371,-61.38281 3.1598,-1.88018 6.9629,-2.75038 10.7207,-2.63477 z m -92.7226,69.3691 23.039,12.87696 c 12.6717,7.08221 28.7312,16.03834 35.6875,19.90234 6.9565,3.86408 12.6546,7.12693 12.6622,7.25195 0.015,0.24643 -71.0409,55.18164 -71.375,55.18164 -0.1115,10e-6 -0.2032,-14.02913 -0.2032,-31.17578 0,-14.84945 -0.01,-22.37639 -0.094,-26.56054 0,-0.003 0.01,-0.006 0.01,-0.01 0,0 -0.045,-20.78561 0.068,-26.70508 z m 183.1738,0.42383 0.098,23.56446 c 0.054,12.96022 0.054,34.30693 0,47.4375 l -0.098,23.87304 -14.2187,-11.08594 c -12.1546,-9.47727 -24.2833,-18.8817 -25.3008,-19.70507 -0.045,-0.0362 -0.09,-0.0629 -0.1328,-0.0801 -2.0229,-1.64206 -7.7608,-6.15434 -15.1133,-11.86524 -8.4944,-6.59762 -15.4042,-12.15012 -15.3555,-12.33789 0.049,-0.18797 4.0211,-2.55232 8.8281,-5.2539 2.0694,-1.16295 3.9443,-2.25088 5.5118,-3.18164 0,6e-4 0.01,8e-4 0.01,0.002 0.8839,-0.52808 12.5405,-6.98605 36.1621,-20.30664 z m -91.5469,36.43164 c 4.0191,-0.099 8.0379,0.94801 11.2344,3.11133 1.598,1.08141 30.0187,23.16619 37.4707,29.11719 0.1736,0.1386 0.3324,0.24447 0.4961,0.36133 2.8811,2.25099 17.607,13.75721 24.0098,18.72265 7.0221,5.44573 12.7797,10.03069 12.791,10.1875 0.013,0.15727 -38.7448,0.28516 -86.127,0.28516 -84.2708,0 -86.133,-0.0158 -85.3984,-0.71484 2.0314,-1.93264 74.8883,-57.85164 76.5352,-58.74219 2.7368,-1.47996 5.8623,-2.25112 8.9882,-2.32813 z"
         style="fill:#3b3737;fill-opacity:1;stroke:#3b3737;stroke-width:1.13763785;stroke-miterlimit:4;stroke-dasharray:none;stroke-opacity:1"
         transform="scale(0.26458333)"
         id="path847" />
      <path
         inkscape:connector-curvature="0"
         d="m -881.4761,44.740325 c -0.58523,0.01249 -1.14776,0.06577 -1.61282,0.162263 -3.94943,0.819402 -7.03802,3.987242 -7.73906,7.938532 -0.18589,1.04783 -0.081,3.303707 0.19791,4.26589 0.2699,0.930863 0.77256,2.029968 1.27952,2.796728 0.51846,0.784135 1.75874,2.073138 2.5032,2.601392 1.23846,0.878784 2.9595,1.560938 4.43333,1.757 1.62899,0.216696 4.36719,-0.180391 4.89686,-0.710034 0.21214,-0.212098 0.24857,-0.60189 0.0847,-0.907954 -0.19666,-0.367485 -0.51088,-0.396994 -1.45986,-0.135912 -2.86015,0.786916 -5.7272,0.08073 -7.92149,-1.950783 -1.14218,-1.058193 -2.10204,-2.720081 -2.45203,-4.24987 -0.2445,-1.068485 -0.22582,-2.738445 0.0424,-3.77858 0.77624,-3.010358 3.18873,-5.382742 6.20533,-6.102988 0.76808,-0.183367 1.09945,-0.208013 2.16627,-0.162264 1.44397,0.06193 2.13617,0.225452 3.28248,0.775663 2.19297,1.052561 3.8759,3.113673 4.48191,5.489589 0.3879,1.520851 0.21899,3.93097 -0.34677,4.952669 -0.23061,0.416467 -0.91784,0.84129 -1.36168,0.84129 -0.42637,0 -1.09672,-0.393565 -1.34202,-0.788064 -0.22608,-0.363493 -0.23132,-0.440232 -0.28061,-3.931026 -0.0478,-3.376308 -0.0605,-3.567136 -0.24599,-3.702616 -0.52461,-0.383196 -1.16477,-0.01892 -1.16477,0.663006 0,0.221666 -0.0259,0.403077 -0.0574,0.403077 -0.0314,0 -0.20212,-0.108087 -0.37775,-0.240294 -2.25099,-1.68705 -5.38496,-1.112293 -6.92621,1.270206 -0.53231,0.822867 -0.73353,1.653963 -0.68265,2.818432 0.0363,0.830807 0.0845,1.035674 0.40256,1.697056 0.59931,1.246176 1.45032,2.029078 2.70423,2.488218 1.5543,0.569119 3.37839,0.246954 4.69067,-0.828373 l 0.42013,-0.344165 0.12094,0.266134 c 0.65643,1.440751 2.60906,2.115031 4.06331,1.403532 1.49495,-0.731414 2.16641,-2.471018 2.06447,-5.346959 -0.0406,-1.145754 -0.10208,-1.594207 -0.31885,-2.31924 -0.49536,-1.657061 -1.28307,-2.993363 -2.47529,-4.198194 -1.23801,-1.251098 -2.8417,-2.184262 -4.5067,-2.622579 -0.75504,-0.19876 -1.79295,-0.291602 -2.76831,-0.270782 z m 0.32195,6.580476 c 1.08839,0 1.49516,0.154852 2.26343,0.862996 1.6314,1.503773 1.15168,4.354431 -0.88987,5.289082 -1.26961,0.581253 -2.70574,0.324054 -3.69126,-0.661458 -1.57567,-1.575679 -1.11831,-4.169072 0.92761,-5.260144 0.36372,-0.194012 0.58552,-0.230476 1.39009,-0.230476 z"
         style="fill:#3b3737;fill-opacity:1;stroke:#44ffd2;stroke-width:3.60100007;stroke-linecap:round;stroke-miterlimit:4;stroke-dasharray:none;stroke-opacity:1;paint-order:markers stroke fill"
         id="path864" />
    </g>
    <g
       id="g1199"
       transform="translate(-1.6768976)">
      <path
         style="display:inline;fill:#44ffd2;fill-opacity:1;fill-rule:evenodd;stroke-width:0.2846424"
         d="m -944.51711,76.354047 c -1.25223,1.88048 -3.02094,3.65132 -5.19725,5.15164 -2.52936,1.74371 -5.75187,2.99944 -9.19303,4.16199 -14.05607,4.74862 -33.87429,4.30045 -47.92201,-3.27839 -1.8305,-0.98756 -3.5983,-2.12083 -5.1653,-3.40833 -18.9259,-15.55038 -11.5812,-16.41874 -0.8882,-33.5062 10.6931,-17.08748 34.12048,-44.59233026 53.04636,-29.04197 18.92587,15.55036 26.49193,43.14331 15.31943,59.92126 z"
         id="path1113"
         inkscape:connector-curvature="0"
         sodipodi:nodetypes="ssssssss" />
      <path
         sodipodi:nodetypes="cccsscccccccccccccccccsccccccccscsccccccccccccccccccccsccccccscsccccccscsccccccscscccccccscccsscccccccsssccscccsccccccccccsccccccccccscccccsccccccccccccccccccccc"
         inkscape:connector-curvature="0"
         id="path1155"
         d="m -979.97852,28.681641 -6.26757,0.04297 13.40625,23.238282 c 3.48046,6.03212 6.68402,11.580323 9.03906,15.658203 1.17752,2.038939 2.14309,3.709208 2.82617,4.890625 0.68308,1.181417 1.05142,1.821567 1.13477,1.960937 l 1.08203,1.810547 0.99414,-1.634765 c 0.60263,-0.990944 1.67888,-2.86498 2.63672,-4.566407 0.47891,-0.850713 0.92798,-1.656924 1.26953,-2.283203 0.17077,-0.313139 0.31404,-0.580881 0.42383,-0.791016 0.10978,-0.210134 0.16941,-0.310237 0.24023,-0.496093 0.4087,-1.07233 0.39494,-2.434352 0.0547,-3.580078 -0.0709,-0.238782 -0.0804,-0.200876 -0.12305,-0.285157 -0.0427,-0.08428 -0.0972,-0.189805 -0.16601,-0.318359 -0.13773,-0.257107 -0.33191,-0.609281 -0.57422,-1.046875 -0.48463,-0.875189 -1.16492,-2.089741 -1.98047,-3.535156 -1.63111,-2.890831 -3.79821,-6.702106 -5.99024,-10.539063 -2.19202,-3.836956 -4.40856,-7.698706 -6.13867,-10.691406 -0.86505,-1.49635 -1.60933,-2.775566 -2.16797,-3.726563 -0.55863,-0.950996 -0.89259,-1.519127 -1.08203,-1.794921 -0.63894,-0.930204 -1.69875,-1.669413 -2.82226,-2.048829 -0.38616,-0.130426 -0.81649,-0.223286 -1.5918,-0.253906 -0.77531,-0.03062 -1.97772,-0.02545 -4.20313,-0.0098 z m 0.0137,1.751953 c 2.22317,-0.01567 3.42794,-0.01956 4.12109,0.0078 0.69315,0.02738 0.79144,0.05998 1.09961,0.164063 0.71968,0.243039 1.61787,0.912684 1.93945,1.380859 0.0529,0.07695 0.46064,0.744671 1.01563,1.689453 0.55498,0.944783 1.29628,2.222491 2.16015,3.716797 1.72775,2.988612 3.94391,6.848669 6.13477,10.683594 2.19086,3.834925 4.35774,7.64488 5.98633,10.53125 0.81429,1.443185 1.49423,2.65593 1.97461,3.523437 0.24019,0.433754 0.42998,0.781656 0.56054,1.025391 0.0653,0.121868 0.11653,0.21824 0.14844,0.28125 0.0319,0.06301 0.0657,0.19381 0.006,-0.0078 0.20051,0.675195 0.15704,2.016195 -0.0117,2.458984 0.025,-0.06574 -0.0547,0.114139 -0.15625,0.308594 -0.10159,0.194454 -0.24239,0.456049 -0.41015,0.763672 -0.33553,0.615245 -0.77975,1.415982 -1.25586,2.261718 -0.76656,1.361651 -1.49781,2.615307 -2.09961,3.634766 -0.1877,-0.323561 -0.27673,-0.478421 -0.70703,-1.222656 -0.68282,-1.180951 -1.64874,-2.851834 -2.82618,-4.890625 -2.35486,-4.077584 -5.55674,-9.624298 -9.03711,-15.65625 l -11.90234,-20.63086 z m -9.48633,5.763672 c -2.6e-4,0 -0.56947,0.205183 -0.61524,0.25 -0.0458,0.04482 -0.059,0.06549 -0.0723,0.08203 -0.0265,0.03308 -0.0355,0.04691 -0.0449,0.06055 -0.0188,0.02727 -0.0303,0.04528 -0.0449,0.06836 -0.0293,0.04615 -0.0651,0.102744 -0.10937,0.175781 -0.0886,0.146076 -0.2123,0.354436 -0.36914,0.619141 -0.31369,0.529409 -0.75723,1.284124 -1.28711,2.189453 -1.05976,1.810658 -2.46739,4.22694 -3.87695,6.654297 -1.40957,2.427357 -2.82045,4.864878 -3.88868,6.71875 -0.53416,0.926936 -0.98286,1.707898 -1.30276,2.269531 -0.1599,0.280817 -0.2873,0.50579 -0.3789,0.669922 -0.046,0.08207 -0.083,0.149824 -0.1113,0.203125 -0.029,0.0533 -0.024,0.01496 -0.09,0.183594 -10e-5,2.36e-4 -0.027,0.548592 -0.027,0.548828 0,2.36e-4 0.2029,0.366952 0.2031,0.367187 2e-4,2.36e-4 0.1754,0.14625 0.1758,0.146485 4e-4,2.35e-4 0.084,0.04546 0.1133,0.05859 0.1182,0.05254 0.1545,0.05341 0.1894,0.06055 0.07,0.01427 0.099,0.01624 0.1328,0.01953 0.067,0.0066 0.1291,0.0098 0.211,0.01367 0.1636,0.0078 0.3899,0.01484 0.67969,0.02148 0.57946,0.01329 1.41167,0.0252 2.4414,0.03516 2.05946,0.01991 4.90438,0.03125 8.04883,0.03125 3.13473,0 5.98492,-0.0069 8.05273,-0.01953 1.03391,-0.0063 1.87192,-0.01308 2.45508,-0.02148 0.29158,-0.0042 0.51844,-0.0089 0.67969,-0.01367 0.0806,-0.0024 0.14271,-0.0044 0.19922,-0.0078 0.0283,-0.0017 0.0516,-0.0045 0.0957,-0.0098 0.0221,-0.0026 0.0446,-0.0035 0.11133,-0.01953 0.0334,-0.008 0.17711,-0.0622 0.17774,-0.0625 3.1e-4,-1.49e-4 0.22835,-0.158053 0.22851,-0.158203 1.6e-4,-1.49e-4 0.26953,-0.632662 0.26953,-0.632812 0,-5.33e-4 -0.0274,-0.219689 -0.0391,-0.257813 -0.0117,-0.03812 -0.0189,-0.05799 -0.0254,-0.07422 -0.013,-0.03246 -0.0202,-0.04935 -0.0273,-0.06445 -0.0143,-0.0302 -0.0256,-0.05231 -0.0391,-0.07813 -0.027,-0.05163 -0.0606,-0.111441 -0.10351,-0.189453 -0.0859,-0.156024 -0.20797,-0.37392 -0.36328,-0.648437 -0.31063,-0.549035 -0.75281,-1.324006 -1.28321,-2.248047 -1.06079,-1.848083 -2.47574,-4.296616 -3.89258,-6.742188 -1.41683,-2.445572 -2.83555,-4.887716 -3.90625,-6.71875 -0.53534,-0.915516 -0.98459,-1.678568 -1.30273,-2.214843 -0.15907,-0.268138 -0.28435,-0.478249 -0.375,-0.626953 -0.0453,-0.07435 -0.0804,-0.131512 -0.11133,-0.179688 -0.0155,-0.02409 -0.0296,-0.04423 -0.0508,-0.07422 -0.0106,-0.015 -0.0202,-0.03182 -0.0508,-0.06836 -0.0153,-0.01827 -0.0325,-0.04092 -0.084,-0.08789 -0.0515,-0.04697 -0.59148,-0.228515 -0.59179,-0.228515 z m -12.19145,20.144531 -0.059,0.154297 v 0.164062 z m 12.1934,-17.568359 c 0.29445,0.498554 0.61722,1.047612 1.05078,1.789062 1.06871,1.82765 2.48835,4.266894 3.9043,6.710938 1.41595,2.444043 2.82981,4.893567 3.88867,6.738281 0.4368,0.760981 0.76183,1.333679 1.05274,1.845703 -0.53203,0.0061 -1.08644,0.01076 -1.88086,0.01563 -2.06239,0.01264 -4.90922,0.01953 -8.04102,0.01953 -3.13987,0 -5.98042,-0.01143 -8.03125,-0.03125 -0.78458,-0.0076 -1.32753,-0.01787 -1.85156,-0.02734 0.30326,-0.531007 0.6569,-1.147933 1.11523,-1.943359 1.06662,-1.851091 2.47791,-4.28878 3.88672,-6.714844 1.40881,-2.426064 2.81497,-4.840661 3.87305,-6.648437 0.42576,-0.727442 0.74331,-1.262749 1.0332,-1.753906 z m -17.959,24.794921 1.0547,1.744141 c 0.093,0.153494 1.2028,2.070403 2.3769,4.109375 1.2812,2.224652 2.0297,3.481516 2.7578,4.34375 0.5525,0.654258 1.1835,1.102801 1.82624,1.400391 v 0 l 0.58008,0.208984 c 0.20276,0.07298 0.49725,0.147737 0.92383,0.185547 0.42658,0.03781 1.03738,0.06 2.08789,0.07617 2.10101,0.03235 5.95077,0.03476 13.33984,0.03711 4.2303,0.0013 8.07609,-0.0028 10.86524,-0.01172 1.39457,-0.0044 2.52498,-0.0094 3.30859,-0.01563 0.39181,-0.0031 0.69547,-0.0063 0.90625,-0.0098 0.10539,-0.0017 0.18731,-0.0037 0.25,-0.0059 0.0313,-0.0011 0.0548,-0.0017 0.0879,-0.0039 0.0165,-0.0011 0.0322,-0.0021 0.0742,-0.0078 0.021,-0.0029 0.043,-0.0038 0.11523,-0.02344 0.0361,-0.0098 0.18925,-0.07606 0.18946,-0.07617 2.1e-4,-1.14e-4 0.45898,-0.769416 0.45898,-0.769531 0,-1.15e-4 -0.0214,-0.187315 -0.0215,-0.1875 -4e-5,-1.85e-4 -0.0137,-0.05984 -0.0195,-0.07813 -0.0116,-0.03657 -0.0195,-0.0558 -0.0254,-0.07031 -0.0119,-0.02904 -0.018,-0.04136 -0.0234,-0.05273 -0.0109,-0.02275 -0.0177,-0.03421 -0.0254,-0.04883 -0.0153,-0.02924 -0.0315,-0.06093 -0.0527,-0.09961 -0.0424,-0.07736 -0.10191,-0.183581 -0.17773,-0.31836 -0.15164,-0.269557 -0.36846,-0.652761 -0.63672,-1.123047 -0.53651,-0.94057 -1.27676,-2.227971 -2.08984,-3.638672 l -3.20704,-5.564453 h -16.93945 z m 3.084,1.751953 h 14.90039 15.92774 l 2.70117,4.6875 c 0.812,1.40883 1.54942,2.695664 2.08398,3.632813 0.0613,0.107526 0.0888,0.157881 0.14453,0.255859 -0.7672,0.0055 -1.75347,0.0096 -3.03515,0.01367 -2.78606,0.0089 -6.63074,0.01299 -10.85938,0.01172 -7.38871,-0.0024 -11.24271,-0.0052 -13.3125,-0.03711 -1.03489,-0.01593 -1.62551,-0.04058 -1.96094,-0.07031 -0.33542,-0.02973 -0.36295,-0.04419 -0.48437,-0.08789 -0.80503,-0.289674 -1.1064,-0.43372 -1.66211,-1.091796 -0.55576,-0.658077 -1.30186,-1.875061 -2.57616,-4.087891 -0.9158,-1.590393 -1.4576,-2.523863 -1.8672,-3.226563 z"
         style="color:#000000;font-style:normal;font-variant:normal;font-weight:normal;font-stretch:normal;font-size:medium;line-height:normal;font-family:sans-serif;font-variant-ligatures:normal;font-variant-position:normal;font-variant-caps:normal;font-variant-numeric:normal;font-variant-alternates:normal;font-feature-settings:normal;text-indent:0;text-align:start;text-decoration:none;text-decoration-line:none;text-decoration-style:solid;text-decoration-color:#000000;letter-spacing:normal;word-spacing:normal;text-transform:none;writing-mode:lr-tb;direction:ltr;text-orientation:mixed;dominant-baseline:auto;baseline-shift:baseline;text-anchor:start;white-space:normal;shape-padding:0;clip-rule:nonzero;display:inline;overflow:visible;visibility:visible;opacity:1;isolation:auto;mix-blend-mode:normal;color-interpolation:sRGB;color-interpolation-filters:linearRGB;solid-color:#000000;solid-opacity:1;vector-effect:none;fill:#3b3737;fill-opacity:1;fill-rule:nonzero;stroke:none;stroke-width:1.75199997;stroke-linecap:butt;stroke-linejoin:miter;stroke-miterlimit:4;stroke-dasharray:none;stroke-dashoffset:0;stroke-opacity:1;color-rendering:auto;image-rendering:auto;shape-rendering:auto;text-rendering:auto;enable-background:accumulate" />
    </g>
    <g
       id="g1220"
       transform="translate(-729.62304)">
      <path
         style="display:inline;fill:#44ffd2;fill-opacity:1;fill-rule:evenodd;stroke-width:0.2846424"
         d="m -320.08401,76.478869 c -1.25223,1.880489 -3.02094,3.651329 -5.19725,5.151657 -2.52936,1.74371 -5.75187,2.999438 -9.19303,4.161983 -14.05607,4.74862 -33.87428,4.300458 -47.92198,-3.278383 -1.8305,-0.987568 -3.59836,-2.120829 -5.16536,-3.408344 -18.92588,-15.550373 -11.58121,-16.418735 -0.88814,-33.506201 10.69306,-17.08747 34.12045,-44.5923229 53.04633,-29.041958 18.92587,15.550363 26.49193,43.143313 15.31943,59.921246 z"
         id="path2705-5"
         inkscape:connector-curvature="0"
         sodipodi:nodetypes="ssssssss" />
      <path
         inkscape:connector-curvature="0"
         id="path2317"
         d="m -351.60528,76.068588 c -0.54635,-0.203576 -0.56416,-0.218138 -6.40095,-5.22952 -9.29115,-7.97725 -11.90197,-10.446738 -14.42951,-13.648409 -1.62756,-2.061664 -3.147,-4.706735 -3.84202,-6.68828 -1.55533,-4.434305 -1.24564,-9.52369 0.82952,-13.63216 2.15575,-4.268027 5.93928,-7.139425 10.49218,-7.962724 1.3738,-0.248424 3.92727,-0.252463 5.13997,-0.0082 3.54943,0.715139 6.42044,2.574413 8.99483,5.825085 l 0.2874,0.362898 0.2874,-0.362897 c 2.5744,-3.250673 5.44541,-5.109947 8.99483,-5.825085 1.21269,-0.244333 3.76617,-0.240294 5.13997,0.0082 4.55289,0.823298 8.33643,3.694696 10.49219,7.962724 2.07516,4.10847 2.38484,9.197854 0.82951,13.632159 -0.4475,1.275852 -1.42833,3.204547 -2.31192,4.546127 -1.99756,3.032955 -4.54573,5.778096 -9.3233,10.043998 -2.93893,2.62416 -12.19483,10.522185 -12.63594,10.782182 -0.37226,0.219419 -0.62294,0.278095 -1.30635,0.305772 -0.5471,0.02216 -0.98414,-0.01734 -1.23781,-0.11187 z m 6.1444,-7.292172 c 6.52989,-5.601937 9.01794,-7.831414 11.1388,-9.981214 2.41211,-2.445042 3.28392,-3.467755 4.51024,-5.29098 1.84135,-2.737639 2.75018,-5.361277 2.86799,-8.279532 0.24095,-5.968502 -3.05589,-11.152212 -8.17065,-12.846909 -2.40801,-0.797866 -5.20996,-0.74275 -7.4767,0.147071 -1.92628,0.756171 -3.88376,2.374593 -5.37932,4.447554 -0.37167,0.515172 -0.81433,1.129306 -0.98369,1.364744 -0.37176,0.516842 -0.94529,0.811463 -1.57965,0.811463 -0.63436,0 -1.20789,-0.294621 -1.57965,-0.811463 -0.16935,-0.235438 -0.61202,-0.849572 -0.98369,-1.364744 -2.36609,-3.279583 -5.24822,-4.966998 -8.77586,-5.138037 -7.04685,-0.341671 -12.56183,5.686289 -12.2508,13.390321 0.16287,4.034473 1.84996,7.578311 5.57229,11.704973 1.2533,1.389429 4.05769,4.113653 6.05147,5.878464 2.55872,2.264892 11.88282,10.268129 11.96279,10.268129 0.0354,0 2.31978,-1.934928 5.07643,-4.29984 z"
         style="fill:#3b3737;fill-opacity:1;stroke:#44ffd2;stroke-width:1.20500004;stroke-miterlimit:4;stroke-dasharray:none;stroke-opacity:1" />
    </g>
  </g>
</svg>
